<?xml version="1.0" encoding="UTF-8" standalone="no"?>
<svg width="1400px" height="66px" viewBox="0 0 1400 66" version="1.1" xmlns="http://www.w3.org/2000/svg" xmlns:xlink="http://www.w3.org/1999/xlink">
    <!-- Generator: Sketch 47.1 (45422) - http://www.bohemiancoding.com/sketch -->
    <title>Section_Header_Art_XtraSmall</title>
    <desc>Created with Sketch.</desc>
    <defs></defs>
    <g id="Assets-Export" stroke="none" stroke-width="1" fill="none" fill-rule="evenodd">
        <g id="Section_Header_Art_XtraSmall" fill="#125B40">
            <polygon id="Line" fill-rule="nonzero" points="-5.68434189e-14 56 1400 56 1400 54 -5.68434189e-14 54"></polygon>
            <path d="M5.396,28.742 C6.572,28.742 7.664,28.574 8.532,28.154 C9.68,27.622 10.52,26.642 10.52,24.962 C10.52,22.694 8.896,21.602 5.956,21.602 C5.312,21.602 4.472,21.658 3.632,21.77 L3.632,28.658 C4.22,28.714 4.78,28.742 5.396,28.742 Z M1,19.698 C2.652,19.418 4.388,19.25 5.872,19.25 C10.436,19.25 13.292,21.154 13.292,24.738 C13.292,27.258 11.948,29.274 9.512,30.282 L13.04,36.498 C13.376,37.142 13.712,37.786 13.852,38.318 L11.136,38.318 L7.048,30.926 C6.544,30.982 6.04,31.01 5.508,31.01 C5.004,31.01 4.304,30.982 3.632,30.926 L3.632,38.318 L1,38.318 L1,19.698 Z M16.4,32.074 C16.4,28.014 18.724,24.794 22.504,24.794 C25.78,24.794 27.376,27.118 27.376,30.198 C27.376,30.926 27.292,31.738 27.152,32.41 L19.06,32.41 C19.228,35.182 20.6,36.358 22.672,36.358 C23.764,36.358 25.192,36.162 26.424,35.714 L27.068,37.534 C25.444,38.29 23.82,38.626 22.224,38.626 C18.864,38.626 16.4,36.33 16.4,32.074 Z M22.308,26.922 C20.432,26.922 19.368,28.322 19.088,30.59 L24.772,30.59 C24.8,30.31 24.8,30.002 24.8,29.722 C24.8,28.07 23.988,26.922 22.308,26.922 Z M30.876,17.346 L30.876,35.854 C30.876,37.646 31.772,38.626 33.424,38.626 C34.18,38.626 35.02,38.458 35.832,38.15 L35.272,36.19 C34.88,36.33 34.544,36.386 34.264,36.386 C33.704,36.386 33.48,36.05 33.48,35.21 L33.48,17.29 L30.876,17.346 Z M37.96,26.978 C39.416,25.718 41.292,24.85 43.476,24.85 C46.36,24.85 47.676,26.334 47.676,29.806 L47.676,33.138 C47.676,34.146 47.732,35.322 47.928,38.178 L45.772,38.486 L45.352,36.722 C44.008,37.926 42.468,38.626 40.872,38.626 C38.716,38.626 37.4,37.338 37.4,35.322 C37.4,33.894 38.128,32.746 39.248,32.046 C40.368,31.346 42.16,30.926 45.128,30.674 L45.128,30.562 C45.128,27.958 44.512,27.09 42.944,27.09 C41.684,27.09 40.256,27.65 38.912,28.602 L37.96,26.978 Z M41.46,36.582 C42.524,36.582 43.84,35.994 45.128,34.93 L45.128,32.522 C42.468,32.746 41.292,33.054 40.704,33.418 C40.256,33.726 39.92,34.202 39.92,34.986 C39.92,36.022 40.452,36.582 41.46,36.582 Z M53.108,21.238 L52.52,25.158 L50.7,25.158 L50.7,27.314 L52.66,27.314 L52.66,34.342 C52.66,37.646 53.752,38.626 55.88,38.626 C56.944,38.626 58.316,38.402 59.492,37.982 L58.988,36.05 C58.176,36.246 57.364,36.33 56.888,36.33 C55.6,36.33 55.236,35.77 55.236,33.642 L55.236,27.314 L59.268,27.314 L59.268,25.158 L55.236,25.158 L55.236,21.238 L53.108,21.238 Z M61.648,32.074 C61.648,28.014 63.972,24.794 67.752,24.794 C71.028,24.794 72.624,27.118 72.624,30.198 C72.624,30.926 72.54,31.738 72.4,32.41 L64.308,32.41 C64.476,35.182 65.848,36.358 67.92,36.358 C69.012,36.358 70.44,36.162 71.672,35.714 L72.316,37.534 C70.692,38.29 69.068,38.626 67.472,38.626 C64.112,38.626 61.648,36.33 61.648,32.074 Z M67.556,26.922 C65.68,26.922 64.616,28.322 64.336,30.59 L70.02,30.59 C70.048,30.31 70.048,30.002 70.048,29.722 C70.048,28.07 69.236,26.922 67.556,26.922 Z M81.052,36.47 C82.144,36.47 83.236,35.854 84.328,34.846 L84.328,27.706 C83.404,27.174 82.536,26.978 81.584,26.978 C80.52,26.978 79.792,27.258 79.288,27.79 C78.42,28.658 78.084,30.114 78.084,31.682 C78.084,34.538 79.12,36.47 81.052,36.47 Z M75.424,32.214 C75.396,28.546 77.552,24.766 81.5,24.766 C82.62,24.766 83.46,25.102 84.328,25.662 L84.328,17.346 L86.932,17.29 L86.932,33.362 C86.932,34.342 86.96,35.462 87.156,38.178 L85,38.458 L84.608,36.75 C83.432,37.954 82.144,38.71 80.576,38.71 C77.636,38.71 75.452,35.938 75.424,32.214 Z" id="Related"></path>
        </g>
    </g>
</svg>